<svg version="1.1" viewBox="0.0 0.0 960.0 720.0" fill="none" stroke="none" stroke-linecap="square" stroke-miterlimit="10" xmlns:xlink="http://www.w3.org/1999/xlink" xmlns="http://www.w3.org/2000/svg"><clipPath id="p.0"><path d="m0 0l960.0 0l0 720.0l-960.0 0l0 -720.0z" clip-rule="nonzero"/></clipPath><g clip-path="url(#p.0)"><path fill="#000000" fill-opacity="0.0" d="m0 0l960.0 0l0 720.0l-960.0 0z" fill-rule="evenodd"/><defs><linearGradient id="p.1" gradientUnits="userSpaceOnUse" gradientTransform="matrix(19.548046124509074 0.0 0.0 19.548046124509074 0.0 0.0)" spreadMethod="pad" x1="13.666440562104437" y1="9.185314630658555" x2="13.66637028133585" y2="28.73336075504129"><stop offset="0.0" stop-color="#1076d2"/><stop offset="1.0" stop-color="#093053"/></linearGradient></defs><path fill="url(#p.1)" d="m472.3856 221.783c33.893677 0 58.67276 5.8213654 74.33731 17.464096c15.733887 11.642715 23.60083 26.500214 23.60083 44.57251c0 12.337799 -4.0547485 23.777802 -12.164307 34.319977c-8.109497 10.484253 -19.961914 18.130219 -35.55713 22.937897c-15.595245 4.7497864 -37.220642 7.1246643 -64.87622 7.1246643l-130.06433 0l0 -126.41914zm-205.23337 -42.226593l0 382.12463l60.50952 0l0 -169.68835l70.17859 0c15.595245 0 26.823822 0.60821533 33.68573 1.8246155c9.357147 1.911499 18.541016 5.300049 27.551605 10.165649c9.079895 4.865631 19.338104 13.380463 30.774597 25.544495c11.436523 12.164032 25.992096 29.714996 43.666718 52.652924l60.50952 79.50067l76.1048 0l-79.53577 -104.00253c-15.803162 -20.33133 -32.542053 -37.27411 -50.216675 -50.82831c-8.317444 -6.2557983 -20.48175 -12.59848 -36.49286 -19.028046c43.874634 -5.0393677 76.31268 -16.855865 97.31433 -35.449463c21.001587 -18.593628 31.50238 -41.44464 31.50238 -68.55307c0 -21.026398 -6.342102 -40.22821 -19.026184 -57.605408c-12.684143 -17.377213 -29.630981 -29.483322 -50.840515 -36.31836c-21.209534 -6.8929596 -52.192078 -10.339432 -92.94766 -10.339432z" fill-rule="evenodd"/><path stroke="#ffffff" stroke-width="1.0" stroke-linejoin="round" stroke-linecap="butt" d="m472.3856 221.783c33.893677 0 58.67276 5.8213654 74.33731 17.464096c15.733887 11.642715 23.60083 26.500214 23.60083 44.57251c0 12.337799 -4.0547485 23.777802 -12.164307 34.319977c-8.109497 10.484253 -19.961914 18.130219 -35.55713 22.937897c-15.595245 4.7497864 -37.220642 7.1246643 -64.87622 7.1246643l-130.06433 0l0 -126.41914zm-205.23337 -42.226593l0 382.12463l60.50952 0l0 -169.68835l70.17859 0c15.595245 0 26.823822 0.60821533 33.68573 1.8246155c9.357147 1.911499 18.541016 5.300049 27.551605 10.165649c9.079895 4.865631 19.338104 13.380463 30.774597 25.544495c11.436523 12.164032 25.992096 29.714996 43.666718 52.652924l60.50952 79.50067l76.1048 0l-79.53577 -104.00253c-15.803162 -20.33133 -32.542053 -37.27411 -50.216675 -50.82831c-8.317444 -6.2557983 -20.48175 -12.59848 -36.49286 -19.028046c43.874634 -5.0393677 76.31268 -16.855865 97.31433 -35.449463c21.001587 -18.593628 31.50238 -41.44464 31.50238 -68.55307c0 -21.026398 -6.342102 -40.22821 -19.026184 -57.605408c-12.684143 -17.377213 -29.630981 -29.483322 -50.840515 -36.31836c-21.209534 -6.8929596 -52.192078 -10.339432 -92.94766 -10.339432z" fill-rule="evenodd"/></g></svg>